<svg version="1.1" viewBox="0.0 0.0 480.0 480.0" fill="none" stroke="none" stroke-linecap="square" stroke-miterlimit="10" xmlns:xlink="http://www.w3.org/1999/xlink" xmlns="http://www.w3.org/2000/svg"><clipPath id="g2c15ec35c90_0_1.0"><path d="m0 0l480.0 0l0 480.0l-480.0 0l0 -480.0z" clip-rule="nonzero"/></clipPath><g clip-path="url(#g2c15ec35c90_0_1.0)"><path fill="#000000" fill-opacity="0.0" d="m0 0l480.0 0l0 480.0l-480.0 0z" fill-rule="evenodd"/><path fill="#b6d7a8" d="m13.858268 86.81365l0 0c0 -41.631546 33.749035 -75.380585 75.38058 -75.380585l301.52234 0l0 0c19.992157 0 39.165497 7.9418583 53.302094 22.07846c14.136597 14.1366005 22.07846 33.309948 22.07846 53.30212l0 306.37268c0 41.63156 -33.749023 75.380585 -75.380554 75.380585l-301.52234 0c-41.631542 0 -75.38058 -33.749023 -75.38058 -75.380585z" fill-rule="evenodd"/><path stroke="#38761d" stroke-width="1.0" stroke-linejoin="round" stroke-linecap="butt" d="m13.858268 86.81365l0 0c0 -41.631546 33.749035 -75.380585 75.38058 -75.380585l301.52234 0l0 0c19.992157 0 39.165497 7.9418583 53.302094 22.07846c14.136597 14.1366005 22.07846 33.309948 22.07846 53.30212l0 306.37268c0 41.63156 -33.749023 75.380585 -75.380554 75.380585l-301.52234 0c-41.631542 0 -75.38058 -33.749023 -75.38058 -75.380585z" fill-rule="evenodd"/><path fill="#000000" d="m171.0071 360.0q-7.0 0 -11.67186 -4.5q-4.671875 -4.5 -4.671875 -11.171875l0 -228.98438q0 -7.0 4.5 -11.328125q4.5 -4.34375 11.17186 -4.34375l80.328125 0q21.343765 0 38.17189 8.671875q16.828125 8.65625 26.484375 24.0q9.671875 15.328125 9.671875 35.328125q0 17.0 -9.171875 30.5q-9.15625 13.5 -24.484375 20.828125q22.0 5.671875 35.5 21.671875q13.5 16.0 13.5 41.328125q0 23.0 -10.671875 40.5q-10.671875 17.5 -29.5 27.5q-18.828125 10.0 -43.15625 10.0l-86.000015 0zm15.0 -29.328125l71.000015 0q15.65625 0 27.484375 -5.671875q11.84375 -5.671875 18.671875 -16.5q6.828125 -10.828125 6.828125 -26.5q0 -14.671875 -6.828125 -24.671875q-6.828125 -10.0 -18.671875 -15.328125q-11.828125 -5.328125 -27.484375 -5.328125l-71.000015 0l0 94.0zm0 -123.34375l64.65625 0q19.343765 0 31.82814 -10.15625q12.5 -10.171875 12.5 -29.5q0 -19.328125 -12.5 -29.0q-12.484375 -9.671875 -31.82814 -9.671875l-64.65625 0l0 78.328125z" fill-rule="nonzero"/></g></svg>