<svg version="1.1" viewBox="0.0 0.0 480.0 480.0" fill="none" stroke="none" stroke-linecap="square" stroke-miterlimit="10" xmlns:xlink="http://www.w3.org/1999/xlink" xmlns="http://www.w3.org/2000/svg"><clipPath id="g2c15ec35c90_0_9.0"><path d="m0 0l480.0 0l0 480.0l-480.0 0l0 -480.0z" clip-rule="nonzero"/></clipPath><g clip-path="url(#g2c15ec35c90_0_9.0)"><path fill="#000000" fill-opacity="0.0" d="m0 0l480.0 0l0 480.0l-480.0 0z" fill-rule="evenodd"/><path fill="#b6d7a8" d="m13.858268 86.81365l0 0c0 -41.631546 33.749035 -75.380585 75.38058 -75.380585l301.52234 0l0 0c19.992157 0 39.165497 7.9418583 53.302094 22.07846c14.136597 14.1366005 22.07846 33.309948 22.07846 53.30212l0 306.37268c0 41.63156 -33.749023 75.380585 -75.380554 75.380585l-301.52234 0c-41.631542 0 -75.38058 -33.749023 -75.38058 -75.380585z" fill-rule="evenodd"/><path stroke="#38761d" stroke-width="1.0" stroke-linejoin="round" stroke-linecap="butt" d="m13.858268 86.81365l0 0c0 -41.631546 33.749035 -75.380585 75.38058 -75.380585l301.52234 0l0 0c19.992157 0 39.165497 7.9418583 53.302094 22.07846c14.136597 14.1366005 22.07846 33.309948 22.07846 53.30212l0 306.37268c0 41.63156 -33.749023 75.380585 -75.380554 75.380585l-301.52234 0c-41.631542 0 -75.38058 -33.749023 -75.38058 -75.380585z" fill-rule="evenodd"/><path fill="#000000" d="m159.3354 360.0q-6.671875 0 -11.171875 -4.5q-4.5 -4.5 -4.5 -11.171875l0 -228.98438q0 -7.0 4.5 -11.328125q4.5 -4.34375 11.171875 -4.34375l60.328125 0q28.671875 0 52.17189 9.5q23.5 9.5 40.828125 27.0q17.328125 17.5 26.828125 41.171875q9.5 23.65625 9.5 52.328125q0 28.65625 -9.5 52.5q-9.5 23.828125 -26.828125 41.328125q-17.328125 17.5 -40.828125 27.0q-23.500015 9.5 -52.17189 9.5l-60.328125 0zm15.671875 -28.0l44.65625 0q29.0 0 51.156265 -13.15625q22.171875 -13.171875 35.0 -36.34375q12.84375 -23.171875 12.84375 -52.828125q0 -30.0 -12.84375 -53.0q-12.828125 -23.0 -35.0 -36.0q-22.156265 -13.0 -51.156265 -13.0l-44.65625 0l0 204.32812z" fill-rule="nonzero"/></g></svg>