<svg version="1.1" viewBox="0.0 0.0 480.0 480.0" fill="none" stroke="none" stroke-linecap="square" stroke-miterlimit="10" xmlns:xlink="http://www.w3.org/1999/xlink" xmlns="http://www.w3.org/2000/svg"><clipPath id="g2c15ec35c90_0_33.0"><path d="m0 0l480.0 0l0 480.0l-480.0 0l0 -480.0z" clip-rule="nonzero"/></clipPath><g clip-path="url(#g2c15ec35c90_0_33.0)"><path fill="#000000" fill-opacity="0.0" d="m0 0l480.0 0l0 480.0l-480.0 0z" fill-rule="evenodd"/><path fill="#b6d7a8" d="m13.858268 86.81365l0 0c0 -41.631546 33.749035 -75.380585 75.38058 -75.380585l301.52234 0l0 0c19.992157 0 39.165497 7.9418583 53.302094 22.07846c14.136597 14.1366005 22.07846 33.309948 22.07846 53.30212l0 306.37268c0 41.63156 -33.749023 75.380585 -75.380554 75.380585l-301.52234 0c-41.631542 0 -75.38058 -33.749023 -75.38058 -75.380585z" fill-rule="evenodd"/><path stroke="#38761d" stroke-width="1.0" stroke-linejoin="round" stroke-linecap="butt" d="m13.858268 86.81365l0 0c0 -41.631546 33.749035 -75.380585 75.38058 -75.380585l301.52234 0l0 0c19.992157 0 39.165497 7.9418583 53.302094 22.07846c14.136597 14.1366005 22.07846 33.309948 22.07846 53.30212l0 306.37268c0 41.63156 -33.749023 75.380585 -75.380554 75.380585l-301.52234 0c-41.631542 0 -75.38058 -33.749023 -75.38058 -75.380585z" fill-rule="evenodd"/><path fill="#000000" d="m230.82979 363.32812q-23.0 0 -41.0 -10.15625q-18.0 -10.171875 -28.171875 -28.171875q-10.15625 -18.0 -10.15625 -41.0q0 -6.671875 4.5 -11.171875q4.5 -4.5 11.171875 -4.5q7.0 0 11.328125 4.5q4.328125 4.5 4.328125 11.171875q0 14.671875 6.328125 26.171875q6.34375 11.5 17.171875 18.0q10.84375 6.5 24.5 6.5q14.0 0 24.828125 -6.671875q10.843765 -6.671875 17.000015 -18.0q6.171875 -11.328125 6.171875 -26.0l0 -168.65625q0 -7.0 4.5 -11.328125q4.5 -4.34375 11.171875 -4.34375q6.65625 0 11.15625 4.34375q4.5 4.328125 4.5 11.328125l0 168.65625q0 23.0 -10.328125 41.0q-10.328125 18.0 -28.171875 28.171875q-17.82814 10.15625 -40.82814 10.15625z" fill-rule="nonzero"/></g></svg>