<svg version="1.1" viewBox="0.0 0.0 480.0 480.0" fill="none" stroke="none" stroke-linecap="square" stroke-miterlimit="10" xmlns:xlink="http://www.w3.org/1999/xlink" xmlns="http://www.w3.org/2000/svg"><clipPath id="g2c15ec35c90_0_57.0"><path d="m0 0l480.0 0l0 480.0l-480.0 0l0 -480.0z" clip-rule="nonzero"/></clipPath><g clip-path="url(#g2c15ec35c90_0_57.0)"><path fill="#000000" fill-opacity="0.0" d="m0 0l480.0 0l0 480.0l-480.0 0z" fill-rule="evenodd"/><path fill="#b6d7a8" d="m13.858268 86.81365l0 0c0 -41.631546 33.749035 -75.380585 75.38058 -75.380585l301.52234 0l0 0c19.992157 0 39.165497 7.9418583 53.302094 22.07846c14.136597 14.1366005 22.07846 33.309948 22.07846 53.30212l0 306.37268c0 41.63156 -33.749023 75.380585 -75.380554 75.380585l-301.52234 0c-41.631542 0 -75.38058 -33.749023 -75.38058 -75.380585z" fill-rule="evenodd"/><path stroke="#38761d" stroke-width="1.0" stroke-linejoin="round" stroke-linecap="butt" d="m13.858268 86.81365l0 0c0 -41.631546 33.749035 -75.380585 75.38058 -75.380585l301.52234 0l0 0c19.992157 0 39.165497 7.9418583 53.302094 22.07846c14.136597 14.1366005 22.07846 33.309948 22.07846 53.30212l0 306.37268c0 41.63156 -33.749023 75.380585 -75.380554 75.380585l-301.52234 0c-41.631542 0 -75.38058 -33.749023 -75.38058 -75.380585z" fill-rule="evenodd"/><path fill="#000000" d="m185.83498 360.0q-6.671875 0 -11.171875 -4.5q-4.5 -4.5 -4.5 -11.171875l0 -228.98438q0 -6.671875 4.5 -11.171875q4.5 -4.5 11.171875 -4.5l66.671875 0q25.000015 0 44.156265 11.0q19.171875 11.0 29.828125 30.171875q10.671875 19.15625 10.671875 44.5q0 24.328125 -10.671875 43.328125q-10.65625 19.0 -29.828125 29.671875q-19.15625 10.65625 -44.156265 10.65625l-51.0 0l0 75.328125q0 6.671875 -4.34375 11.171875q-4.328125 4.5 -11.328125 4.5zm15.671875 -120.328125l51.0 0q16.000015 0 28.32814 -7.0q12.328125 -7.0 19.328125 -19.328125q7.0 -12.34375 7.0 -28.0q0 -16.671875 -7.0 -29.328125q-7.0 -12.671875 -19.328125 -19.84375q-12.328125 -7.171875 -28.32814 -7.171875l-51.0 0l0 110.671875z" fill-rule="nonzero"/></g></svg>