<svg version="1.1" viewBox="0.0 0.0 480.0 480.0" fill="none" stroke="none" stroke-linecap="square" stroke-miterlimit="10" xmlns:xlink="http://www.w3.org/1999/xlink" xmlns="http://www.w3.org/2000/svg"><clipPath id="g2c15ec35c90_0_77.0"><path d="m0 0l480.0 0l0 480.0l-480.0 0l0 -480.0z" clip-rule="nonzero"/></clipPath><g clip-path="url(#g2c15ec35c90_0_77.0)"><path fill="#000000" fill-opacity="0.0" d="m0 0l480.0 0l0 480.0l-480.0 0z" fill-rule="evenodd"/><path fill="#b6d7a8" d="m13.858268 86.81365l0 0c0 -41.631546 33.749035 -75.380585 75.38058 -75.380585l301.52234 0l0 0c19.992157 0 39.165497 7.9418583 53.302094 22.07846c14.136597 14.1366005 22.07846 33.309948 22.07846 53.30212l0 306.37268c0 41.63156 -33.749023 75.380585 -75.380554 75.380585l-301.52234 0c-41.631542 0 -75.38058 -33.749023 -75.38058 -75.380585z" fill-rule="evenodd"/><path stroke="#38761d" stroke-width="1.0" stroke-linejoin="round" stroke-linecap="butt" d="m13.858268 86.81365l0 0c0 -41.631546 33.749035 -75.380585 75.38058 -75.380585l301.52234 0l0 0c19.992157 0 39.165497 7.9418583 53.302094 22.07846c14.136597 14.1366005 22.07846 33.309948 22.07846 53.30212l0 306.37268c0 41.63156 -33.749023 75.380585 -75.380554 75.380585l-301.52234 0c-41.631542 0 -75.38058 -33.749023 -75.38058 -75.380585z" fill-rule="evenodd"/><path fill="#000000" d="m241.16368 365.32812q-31.328125 0 -55.5 -11.828125q-24.15625 -11.828125 -37.828125 -32.65625q-13.671875 -20.84375 -13.671875 -47.515625l0 -157.98438q0 -6.671875 4.5 -11.171875q4.5 -4.5 11.171875 -4.5q7.0 0 11.328125 4.5q4.34375 4.5 4.34375 11.171875l0 157.98438q0 18.671875 9.65625 32.84375q9.671875 14.15625 26.828125 22.328125q17.171875 8.171875 39.171875 8.171875q21.343765 0 38.000015 -8.171875q16.671875 -8.171875 26.171875 -22.328125q9.5 -14.171875 9.5 -32.84375l0 -157.98438q0 -6.671875 4.5 -11.171875q4.5 -4.5 11.15625 -4.5q7.0 0 11.171875 4.5q4.171875 4.5 4.171875 11.171875l0 157.98438q0 26.671875 -13.34375 47.515625q-13.328125 20.828125 -37.0 32.65625q-23.65625 11.828125 -54.32814 11.828125z" fill-rule="nonzero"/></g></svg>