<svg version="1.1" viewBox="0.0 0.0 480.0 480.0" fill="none" stroke="none" stroke-linecap="square" stroke-miterlimit="10" xmlns:xlink="http://www.w3.org/1999/xlink" xmlns="http://www.w3.org/2000/svg"><clipPath id="g2c15ec35c90_0_85.0"><path d="m0 0l480.0 0l0 480.0l-480.0 0l0 -480.0z" clip-rule="nonzero"/></clipPath><g clip-path="url(#g2c15ec35c90_0_85.0)"><path fill="#000000" fill-opacity="0.0" d="m0 0l480.0 0l0 480.0l-480.0 0z" fill-rule="evenodd"/><path fill="#b6d7a8" d="m13.858268 86.81365l0 0c0 -41.631546 33.749035 -75.380585 75.38058 -75.380585l301.52234 0l0 0c19.992157 0 39.165497 7.9418583 53.302094 22.07846c14.136597 14.1366005 22.07846 33.309948 22.07846 53.30212l0 306.37268c0 41.63156 -33.749023 75.380585 -75.380554 75.380585l-301.52234 0c-41.631542 0 -75.38058 -33.749023 -75.38058 -75.380585z" fill-rule="evenodd"/><path stroke="#38761d" stroke-width="1.0" stroke-linejoin="round" stroke-linecap="butt" d="m13.858268 86.81365l0 0c0 -41.631546 33.749035 -75.380585 75.38058 -75.380585l301.52234 0l0 0c19.992157 0 39.165497 7.9418583 53.302094 22.07846c14.136597 14.1366005 22.07846 33.309948 22.07846 53.30212l0 306.37268c0 41.63156 -33.749023 75.380585 -75.380554 75.380585l-301.52234 0c-41.631542 0 -75.38058 -33.749023 -75.38058 -75.380585z" fill-rule="evenodd"/><path fill="#000000" d="m172.34103 360.0q-5.34375 0 -9.515625 -3.328125q-4.15625 -3.34375 -6.15625 -9.34375l-67.32812 -225.65625q-3.0 -10.0 0.5 -16.0q3.5 -6.0 11.828125 -6.0q5.0 0 9.15625 2.84375q4.171875 2.828125 6.171875 9.15625l59.343742 207.65625l-7.34375 0l55.671875 -204.32812q1.328125 -4.65625 5.5 -7.484375q4.171875 -2.84375 9.5 -2.84375q4.671875 0 9.15625 2.5q4.5 2.5 5.5 7.828125l56.0 204.32812l-7.0 0l60.0 -209.32812q3.0 -10.328125 15.34375 -10.328125q8.328125 0 10.984375 6.5q2.671875 6.5 0.34375 15.5l-67.328125 225.32812q-2.0 6.0 -6.171875 9.5q-4.171875 3.5 -9.5 3.5q-5.671875 0 -9.84375 -3.65625q-4.15625 -3.671875 -5.828125 -9.015625l-55.328125 -208.98438l8.0 0l-55.65625 208.65625q-2.0 6.0 -6.171875 9.5q-4.171875 3.5 -9.828125 3.5z" fill-rule="nonzero"/></g></svg>