<svg version="1.1" viewBox="0.0 0.0 480.0 480.0" fill="none" stroke="none" stroke-linecap="square" stroke-miterlimit="10" xmlns:xlink="http://www.w3.org/1999/xlink" xmlns="http://www.w3.org/2000/svg"><clipPath id="g2c15ec35c90_0_89.0"><path d="m0 0l480.0 0l0 480.0l-480.0 0l0 -480.0z" clip-rule="nonzero"/></clipPath><g clip-path="url(#g2c15ec35c90_0_89.0)"><path fill="#000000" fill-opacity="0.0" d="m0 0l480.0 0l0 480.0l-480.0 0z" fill-rule="evenodd"/><path fill="#b6d7a8" d="m13.858268 86.81365l0 0c0 -41.631546 33.749035 -75.380585 75.38058 -75.380585l301.52234 0l0 0c19.992157 0 39.165497 7.9418583 53.302094 22.07846c14.136597 14.1366005 22.07846 33.309948 22.07846 53.30212l0 306.37268c0 41.63156 -33.749023 75.380585 -75.380554 75.380585l-301.52234 0c-41.631542 0 -75.38058 -33.749023 -75.38058 -75.380585z" fill-rule="evenodd"/><path stroke="#38761d" stroke-width="1.0" stroke-linejoin="round" stroke-linecap="butt" d="m13.858268 86.81365l0 0c0 -41.631546 33.749035 -75.380585 75.38058 -75.380585l301.52234 0l0 0c19.992157 0 39.165497 7.9418583 53.302094 22.07846c14.136597 14.1366005 22.07846 33.309948 22.07846 53.30212l0 306.37268c0 41.63156 -33.749023 75.380585 -75.380554 75.380585l-301.52234 0c-41.631542 0 -75.38058 -33.749023 -75.38058 -75.380585z" fill-rule="evenodd"/><path fill="#000000" d="m151.84044 360.0q-7.0 0 -10.671875 -4.328125q-3.671875 -4.34375 -3.84375 -10.171875q-0.15625 -5.828125 3.84375 -10.828125l85.0 -114.671875l14.0 -11.671875l77.000015 -103.65625q4.328125 -5.0 11.65625 -5.0q6.34375 0 10.0 4.0q3.671875 4.0 4.0 9.84375q0.34375 5.828125 -3.328125 10.828125l-81.328125 109.328125l-13.000015 11.328125l-82.328125 110.328125q-4.671875 4.671875 -11.0 4.671875zm176.65627 0q-3.671875 0 -6.671875 -1.328125q-3.0 -1.34375 -5.328125 -4.34375l-79.656265 -110.65625l-11.671875 -9.0l-79.328125 -110.328125q-3.671875 -5.0 -3.171875 -10.671875q0.5 -5.671875 4.328125 -9.828125q3.84375 -4.171875 10.171875 -4.171875q7.671875 0 11.328125 5.0l75.671875 104.65625l11.328125 9.0l84.000015 116.34375q3.671875 5.0 3.5 11.0q-0.171875 6.0 -4.0 10.171875q-3.828125 4.15625 -10.5 4.15625z" fill-rule="nonzero"/></g></svg>