<svg version="1.1" viewBox="0.0 0.0 480.0 480.0" fill="none" stroke="none" stroke-linecap="square" stroke-miterlimit="10" xmlns:xlink="http://www.w3.org/1999/xlink" xmlns="http://www.w3.org/2000/svg"><clipPath id="g2c15ec35c90_0_97.0"><path d="m0 0l480.0 0l0 480.0l-480.0 0l0 -480.0z" clip-rule="nonzero"/></clipPath><g clip-path="url(#g2c15ec35c90_0_97.0)"><path fill="#000000" fill-opacity="0.0" d="m0 0l480.0 0l0 480.0l-480.0 0z" fill-rule="evenodd"/><path fill="#b6d7a8" d="m13.858268 86.81365l0 0c0 -41.631546 33.749035 -75.380585 75.38058 -75.380585l301.52234 0l0 0c19.992157 0 39.165497 7.9418583 53.302094 22.07846c14.136597 14.1366005 22.07846 33.309948 22.07846 53.30212l0 306.37268c0 41.63156 -33.749023 75.380585 -75.380554 75.380585l-301.52234 0c-41.631542 0 -75.38058 -33.749023 -75.38058 -75.380585z" fill-rule="evenodd"/><path stroke="#38761d" stroke-width="1.0" stroke-linejoin="round" stroke-linecap="butt" d="m13.858268 86.81365l0 0c0 -41.631546 33.749035 -75.380585 75.38058 -75.380585l301.52234 0l0 0c19.992157 0 39.165497 7.9418583 53.302094 22.07846c14.136597 14.1366005 22.07846 33.309948 22.07846 53.30212l0 306.37268c0 41.63156 -33.749023 75.380585 -75.380554 75.380585l-301.52234 0c-41.631542 0 -75.38058 -33.749023 -75.38058 -75.380585z" fill-rule="evenodd"/><path fill="#000000" d="m150.50195 360.0q-7.0 0 -11.0 -4.5q-4.0 -4.5 -4.5 -10.328125q-0.5 -5.84375 3.171875 -10.5l166.65628 -207.0l-151.65628 0q-7.671875 0 -11.515625 -3.828125q-3.828125 -3.84375 -3.484375 -9.84375q-0.34375 -6.0 4.15625 -10.15625q4.5 -4.171875 11.171875 -4.171875l175.32816 0q7.0 0 11.15625 4.34375q4.171875 4.328125 4.84375 10.15625q0.671875 5.828125 -3.0 10.171875l-167.32816 207.65625l154.32816 0q7.0 0 11.328125 4.0q4.34375 4.0 4.34375 10.0q0 6.328125 -4.34375 10.171875q-4.328125 3.828125 -11.328125 3.828125l-178.32816 0z" fill-rule="nonzero"/></g></svg>