<svg version="1.1" viewBox="0.0 0.0 384.0 504.0" fill="none" stroke="none" stroke-linecap="square" stroke-miterlimit="10" xmlns:xlink="http://www.w3.org/1999/xlink" xmlns="http://www.w3.org/2000/svg"><clipPath id="g2c175670b50_0_180.0"><path d="m0 0l384.0 0l0 504.0l-384.0 0l0 -504.0z" clip-rule="nonzero"/></clipPath><g clip-path="url(#g2c175670b50_0_180.0)"><path fill="#000000" fill-opacity="0.0" d="m0 0l384.0 0l0 504.0l-384.0 0z" fill-rule="evenodd"/><path fill="#f3f3f3" d="m11.086615 72.30919l0 0c0 -33.305237 26.999228 -60.304466 60.30446 -60.304466l241.21783 0l0 0c15.993744 0 31.332428 6.353487 42.641693 17.662767c11.309296 11.30928 17.66278 26.647957 17.66278 42.641697l0 359.35956c0 33.305237 -26.999237 60.304474 -60.304474 60.304474l-241.21783 0c-33.305233 0 -60.30446 -26.999237 -60.30446 -60.304474z" fill-rule="evenodd"/><path stroke="#434343" stroke-width="1.0" stroke-linejoin="round" stroke-linecap="butt" d="m11.086615 72.30919l0 0c0 -33.305237 26.999228 -60.304466 60.30446 -60.304466l241.21783 0l0 0c15.993744 0 31.332428 6.353487 42.641693 17.662767c11.309296 11.30928 17.66278 26.647957 17.66278 42.641697l0 359.35956c0 33.305237 -26.999237 60.304474 -60.304474 60.304474l-241.21783 0c-33.305233 0 -60.30446 -26.999237 -60.30446 -60.304474z" fill-rule="evenodd"/><path fill="#000000" d="m191.84029 371.98898q-6.34375 0 -11.015625 -4.5q-4.65625 -4.5 -4.65625 -11.171875l0 -244.65625l31.328125 0l0 244.65625q0 6.671875 -4.328125 11.171875q-4.328125 4.5 -11.328125 4.5zm-90.34374 -231.65625q-6.328125 0 -10.328125 -4.0q-4.0 -4.0 -4.0 -10.34375q0 -6.328125 4.0 -10.328125q4.0 -4.0 10.328125 -4.0l180.67184 0q6.65625 0 10.65625 4.0q4.0 4.0 4.0 10.328125q0 6.34375 -4.0 10.34375q-4.0 4.0 -10.65625 4.0l-180.67184 0z" fill-rule="nonzero"/></g></svg>