<svg version="1.1" viewBox="0.0 0.0 384.0 504.0" fill="none" stroke="none" stroke-linecap="square" stroke-miterlimit="10" xmlns:xlink="http://www.w3.org/1999/xlink" xmlns="http://www.w3.org/2000/svg"><clipPath id="g2c175670b50_0_200.0"><path d="m0 0l384.0 0l0 504.0l-384.0 0l0 -504.0z" clip-rule="nonzero"/></clipPath><g clip-path="url(#g2c175670b50_0_200.0)"><path fill="#000000" fill-opacity="0.0" d="m0 0l384.0 0l0 504.0l-384.0 0z" fill-rule="evenodd"/><path fill="#f3f3f3" d="m11.086615 72.30919l0 0c0 -33.305237 26.999228 -60.304466 60.30446 -60.304466l241.21783 0l0 0c15.993744 0 31.332428 6.353487 42.641693 17.662767c11.309296 11.30928 17.66278 26.647957 17.66278 42.641697l0 359.35956c0 33.305237 -26.999237 60.304474 -60.304474 60.304474l-241.21783 0c-33.305233 0 -60.30446 -26.999237 -60.30446 -60.304474z" fill-rule="evenodd"/><path stroke="#434343" stroke-width="1.0" stroke-linejoin="round" stroke-linecap="butt" d="m11.086615 72.30919l0 0c0 -33.305237 26.999228 -60.304466 60.30446 -60.304466l241.21783 0l0 0c15.993744 0 31.332428 6.353487 42.641693 17.662767c11.309296 11.30928 17.66278 26.647957 17.66278 42.641697l0 359.35956c0 33.305237 -26.999237 60.304474 -60.304474 60.304474l-241.21783 0c-33.305233 0 -60.30446 -26.999237 -60.30446 -60.304474z" fill-rule="evenodd"/><path fill="#000000" d="m191.66843 371.98898q-6.328125 0 -10.828125 -4.5q-4.5 -4.5 -4.5 -11.171875l0 -80.0l-89.671875 -140.32812q-4.0 -6.0 -3.0 -11.65625q1.0 -5.671875 5.15625 -9.171875q4.171875 -3.5 10.171875 -3.5q5.0 0 8.0 2.171875q3.0 2.15625 5.671875 6.15625l86.671875 138.32812l-13.671875 0l87.328125 -138.98438q2.671875 -3.671875 6.0 -5.671875q3.328125 -2.0 8.0 -2.0q5.671875 0 9.328125 3.84375q3.671875 3.828125 4.328125 9.328125q0.671875 5.5 -2.984375 11.15625l-90.328125 140.32812l0 80.0q0 6.671875 -4.5 11.171875q-4.5 4.5 -11.171875 4.5z" fill-rule="nonzero"/></g></svg>