<svg version="1.1" viewBox="0.0 0.0 384.0 504.0" fill="none" stroke="none" stroke-linecap="square" stroke-miterlimit="10" xmlns:xlink="http://www.w3.org/1999/xlink" xmlns="http://www.w3.org/2000/svg"><clipPath id="g2c175670b50_0_40.0"><path d="m0 0l384.0 0l0 504.0l-384.0 0l0 -504.0z" clip-rule="nonzero"/></clipPath><g clip-path="url(#g2c175670b50_0_40.0)"><path fill="#000000" fill-opacity="0.0" d="m0 0l384.0 0l0 504.0l-384.0 0z" fill-rule="evenodd"/><path fill="#999999" d="m11.086615 72.30919l0 0c0 -33.305237 26.999228 -60.304466 60.30446 -60.304466l241.21783 0l0 0c15.993744 0 31.332428 6.353487 42.641693 17.662767c11.309296 11.30928 17.66278 26.647957 17.66278 42.641697l0 359.35956c0 33.305237 -26.999237 60.304474 -60.304474 60.304474l-241.21783 0c-33.305233 0 -60.30446 -26.999237 -60.30446 -60.304474z" fill-rule="evenodd"/><path stroke="#434343" stroke-width="1.0" stroke-linejoin="round" stroke-linecap="butt" d="m11.086615 72.30919l0 0c0 -33.305237 26.999228 -60.304466 60.30446 -60.304466l241.21783 0l0 0c15.993744 0 31.332428 6.353487 42.641693 17.662767c11.309296 11.30928 17.66278 26.647957 17.66278 42.641697l0 359.35956c0 33.305237 -26.999237 60.304474 -60.304474 60.304474l-241.21783 0c-33.305233 0 -60.30446 -26.999237 -60.30446 -60.304474z" fill-rule="evenodd"/><path fill="#000000" d="m130.66843 371.98898q-6.328125 0 -11.0 -4.5q-4.671875 -4.5 -4.671875 -11.171875l0 -228.98438q0 -6.671875 4.671875 -11.171875q4.671875 -4.5 11.0 -4.5q6.671875 0 11.171875 4.5q4.5 4.5 4.5 11.171875l0 104.984375l114.65625 -114.65625q3.671875 -3.328125 6.5 -4.65625q2.828125 -1.34375 6.171875 -1.34375q7.65625 0 10.984375 4.5q3.34375 4.5 2.671875 10.671875q-0.65625 6.15625 -5.328125 11.5l-87.65625 87.65625l88.984375 121.0q3.671875 5.328125 3.0 11.171875q-0.65625 5.828125 -4.328125 9.828125q-3.671875 4.0 -9.671875 4.0q-8.65625 0 -13.0 -6.671875l-86.65625 -117.65625l-26.328125 26.328125l0 82.328125q0 6.671875 -4.5 11.171875q-4.5 4.5 -11.171875 4.5z" fill-rule="nonzero"/></g></svg>