<svg version="1.1" viewBox="0.0 0.0 384.0 504.0" fill="none" stroke="none" stroke-linecap="square" stroke-miterlimit="10" xmlns:xlink="http://www.w3.org/1999/xlink" xmlns="http://www.w3.org/2000/svg"><clipPath id="g2c175670b50_0_64.0"><path d="m0 0l384.0 0l0 504.0l-384.0 0l0 -504.0z" clip-rule="nonzero"/></clipPath><g clip-path="url(#g2c175670b50_0_64.0)"><path fill="#000000" fill-opacity="0.0" d="m0 0l384.0 0l0 504.0l-384.0 0z" fill-rule="evenodd"/><path fill="#999999" d="m11.086615 72.30919l0 0c0 -33.305237 26.999228 -60.304466 60.30446 -60.304466l241.21783 0l0 0c15.993744 0 31.332428 6.353487 42.641693 17.662767c11.309296 11.30928 17.66278 26.647957 17.66278 42.641697l0 359.35956c0 33.305237 -26.999237 60.304474 -60.304474 60.304474l-241.21783 0c-33.305233 0 -60.30446 -26.999237 -60.30446 -60.304474z" fill-rule="evenodd"/><path stroke="#434343" stroke-width="1.0" stroke-linejoin="round" stroke-linecap="butt" d="m11.086615 72.30919l0 0c0 -33.305237 26.999228 -60.304466 60.30446 -60.304466l241.21783 0l0 0c15.993744 0 31.332428 6.353487 42.641693 17.662767c11.309296 11.30928 17.66278 26.647957 17.66278 42.641697l0 359.35956c0 33.305237 -26.999237 60.304474 -60.304474 60.304474l-241.21783 0c-33.305233 0 -60.30446 -26.999237 -60.30446 -60.304474z" fill-rule="evenodd"/><path fill="#000000" d="m285.83054 367.3171l-70.671844 -70.65625q-4.65625 -4.671875 -4.65625 -10.671875q0 -6.0 4.65625 -10.671875q4.671875 -4.65625 10.671875 -4.65625q6.0 0 10.671875 4.65625l70.99997 70.671875q4.328125 5.0 4.484375 10.671875q0.171875 5.65625 -4.484375 10.65625q-5.0 4.671875 -10.84375 4.671875q-5.828125 0 -10.828125 -4.671875zm-93.65622 8.0q-29.34375 0 -53.671875 -9.828125q-24.328125 -9.828125 -41.828125 -27.828125q-17.5 -18.0 -27.34375 -42.328125q-9.828129 -24.34375 -9.828129 -53.671875q0 -29.0 9.828129 -53.328125q9.84375 -24.34375 27.34375 -42.34375q17.5 -18.0 41.828125 -27.828125q24.328125 -9.828125 53.671875 -9.828125q28.984375 0 53.3125 9.828125q24.34375 9.828125 41.99997 27.828125q17.671875 18.0 27.5 42.34375q9.84375 24.328125 9.84375 53.328125q0 29.328125 -9.84375 53.671875q-9.828125 24.328125 -27.5 42.328125q-17.65622 18.0 -41.99997 27.828125q-24.328125 9.828125 -53.3125 9.828125zm0 -28.65625q22.328125 0 40.984375 -8.0q18.671875 -8.0 32.5 -22.171875q13.84375 -14.171875 21.34372 -33.328125q7.5 -19.171875 7.5 -41.5q0 -22.34375 -7.5 -41.328125q-7.4999695 -19.0 -21.34372 -33.328125q-13.828125 -14.34375 -32.5 -22.171875q-18.65625 -7.84375 -40.984375 -7.84375q-22.34375 0 -41.015625 7.84375q-18.65625 7.828125 -32.328125 22.171875q-13.65625 14.328125 -21.328125 33.328125q-7.671875 18.984375 -7.671875 41.328125q0 22.328125 7.671875 41.5q7.671875 19.15625 21.328125 33.328125q13.671875 14.171875 32.328125 22.171875q18.671875 8.0 41.015625 8.0z" fill-rule="nonzero"/></g></svg>