<svg version="1.1" viewBox="0.0 0.0 384.0 504.0" fill="none" stroke="none" stroke-linecap="square" stroke-miterlimit="10" xmlns:xlink="http://www.w3.org/1999/xlink" xmlns="http://www.w3.org/2000/svg"><clipPath id="g2c175670b50_0_68.0"><path d="m0 0l384.0 0l0 504.0l-384.0 0l0 -504.0z" clip-rule="nonzero"/></clipPath><g clip-path="url(#g2c175670b50_0_68.0)"><path fill="#000000" fill-opacity="0.0" d="m0 0l384.0 0l0 504.0l-384.0 0z" fill-rule="evenodd"/><path fill="#999999" d="m11.086615 72.30919l0 0c0 -33.305237 26.999228 -60.304466 60.30446 -60.304466l241.21783 0l0 0c15.993744 0 31.332428 6.353487 42.641693 17.662767c11.309296 11.30928 17.66278 26.647957 17.66278 42.641697l0 359.35956c0 33.305237 -26.999237 60.304474 -60.304474 60.304474l-241.21783 0c-33.305233 0 -60.30446 -26.999237 -60.30446 -60.304474z" fill-rule="evenodd"/><path stroke="#434343" stroke-width="1.0" stroke-linejoin="round" stroke-linecap="butt" d="m11.086615 72.30919l0 0c0 -33.305237 26.999228 -60.304466 60.30446 -60.304466l241.21783 0l0 0c15.993744 0 31.332428 6.353487 42.641693 17.662767c11.309296 11.30928 17.66278 26.647957 17.66278 42.641697l0 359.35956c0 33.305237 -26.999237 60.304474 -60.304474 60.304474l-241.21783 0c-33.305233 0 -60.30446 -26.999237 -60.30446 -60.304474z" fill-rule="evenodd"/><path fill="#000000" d="m136.50166 371.98898q-6.671875 0 -11.171867 -4.5q-4.5 -4.5 -4.5 -11.171875l0 -228.98438q0 -7.0 4.5 -11.328125q4.4999924 -4.34375 11.171867 -4.34375l61.0 0q24.671875 0 43.828125 10.34375q19.17186 10.328125 29.999985 28.65625q10.828125 18.328125 10.828125 42.328125q0 22.671875 -10.828125 40.34375q-10.828125 17.65625 -29.999985 27.65625q-19.15625 10.0 -43.828125 10.0l-45.328125 0l0 85.328125q0 6.671875 -4.34375 11.171875q-4.328125 4.5 -11.328125 4.5zm138.65623 0q-4.328125 0 -7.671875 -1.828125q-3.328125 -1.84375 -5.984375 -5.84375l-61.32811 -98.65625l30.65625 -8.671875l56.67186 91.0q5.65625 9.0 1.65625 16.5q-4.0 7.5 -14.0 7.5zm-122.98436 -130.32812l45.328125 0q16.0 0 28.15625 -6.171875q12.171875 -6.171875 19.171875 -17.328125q7.0 -11.171875 7.0 -25.171875q0 -15.328125 -7.0 -27.15625q-7.0 -11.84375 -19.171875 -18.34375q-12.15625 -6.5 -28.15625 -6.5l-45.328125 0l0 100.671875z" fill-rule="nonzero"/></g></svg>