<svg version="1.1" viewBox="0.0 0.0 384.0 504.0" fill="none" stroke="none" stroke-linecap="square" stroke-miterlimit="10" xmlns:xlink="http://www.w3.org/1999/xlink" xmlns="http://www.w3.org/2000/svg"><clipPath id="g2c175670b50_0_88.0"><path d="m0 0l384.0 0l0 504.0l-384.0 0l0 -504.0z" clip-rule="nonzero"/></clipPath><g clip-path="url(#g2c175670b50_0_88.0)"><path fill="#000000" fill-opacity="0.0" d="m0 0l384.0 0l0 504.0l-384.0 0z" fill-rule="evenodd"/><path fill="#999999" d="m11.086615 72.30919l0 0c0 -33.305237 26.999228 -60.304466 60.30446 -60.304466l241.21783 0l0 0c15.993744 0 31.332428 6.353487 42.641693 17.662767c11.309296 11.30928 17.66278 26.647957 17.66278 42.641697l0 359.35956c0 33.305237 -26.999237 60.304474 -60.304474 60.304474l-241.21783 0c-33.305233 0 -60.30446 -26.999237 -60.30446 -60.304474z" fill-rule="evenodd"/><path stroke="#434343" stroke-width="1.0" stroke-linejoin="round" stroke-linecap="butt" d="m11.086615 72.30919l0 0c0 -33.305237 26.999228 -60.304466 60.30446 -60.304466l241.21783 0l0 0c15.993744 0 31.332428 6.353487 42.641693 17.662767c11.309296 11.30928 17.66278 26.647957 17.66278 42.641697l0 359.35956c0 33.305237 -26.999237 60.304474 -60.304474 60.304474l-241.21783 0c-33.305233 0 -60.30446 -26.999237 -60.30446 -60.304474z" fill-rule="evenodd"/><path fill="#000000" d="m126.42107 371.98898q-5.34375 0 -9.515625 -3.328125q-4.15625 -3.34375 -6.15625 -9.34375l-67.328125 -225.65625q-3.0 -10.0 0.5 -16.0q3.5 -6.0 11.828125 -6.0q5.0 0 9.156254 2.84375q4.171875 2.828125 6.171875 9.15625l59.34375 207.65625l-7.34375 0l55.671875 -204.32812q1.328125 -4.65625 5.5 -7.484375q4.171875 -2.84375 9.5 -2.84375q4.671875 0 9.15625 2.5q4.5 2.5 5.5 7.828125l55.999985 204.32812l-7.0 0l60.0 -209.32812q3.0 -10.328125 15.34375 -10.328125q8.328125 0 10.984375 6.5q2.671875 6.5 0.34375 15.5l-67.328125 225.32812q-2.0 6.0 -6.171875 9.5q-4.171875 3.5 -9.5 3.5q-5.6718597 0 -9.843735 -3.65625q-4.15625 -3.671875 -5.828125 -9.015625l-55.328125 -208.98438l8.0 0l-55.65625 208.65625q-2.0 6.0 -6.171875 9.5q-4.171875 3.5 -9.828125 3.5z" fill-rule="nonzero"/></g></svg>