<svg version="1.1" viewBox="0.0 0.0 384.0 504.0" fill="none" stroke="none" stroke-linecap="square" stroke-miterlimit="10" xmlns:xlink="http://www.w3.org/1999/xlink" xmlns="http://www.w3.org/2000/svg"><clipPath id="p.0"><path d="m0 0l384.0 0l0 504.0l-384.0 0l0 -504.0z" clip-rule="nonzero"/></clipPath><g clip-path="url(#p.0)"><path fill="#000000" fill-opacity="0.0" d="m0 0l384.0 0l0 504.0l-384.0 0z" fill-rule="evenodd"/><path fill="#b6d7a8" d="m11.086615 72.30919l0 0c0 -33.305237 26.999228 -60.304466 60.30446 -60.304466l241.21783 0l0 0c15.993744 0 31.332428 6.353487 42.641693 17.662767c11.309296 11.30928 17.66278 26.647957 17.66278 42.641697l0 359.35956c0 33.305237 -26.999237 60.304474 -60.304474 60.304474l-241.21783 0c-33.305233 0 -60.30446 -26.999237 -60.30446 -60.304474z" fill-rule="evenodd"/><path stroke="#38761d" stroke-width="1.0" stroke-linejoin="round" stroke-linecap="butt" d="m11.086615 72.30919l0 0c0 -33.305237 26.999228 -60.304466 60.30446 -60.304466l241.21783 0l0 0c15.993744 0 31.332428 6.353487 42.641693 17.662767c11.309296 11.30928 17.66278 26.647957 17.66278 42.641697l0 359.35956c0 33.305237 -26.999237 60.304474 -60.304474 60.304474l-241.21783 0c-33.305233 0 -60.30446 -26.999237 -60.30446 -60.304474z" fill-rule="evenodd"/><path fill="#000000" d="m96.16333 371.98898q-8.65625 0 -13.0 -7.328125q-4.328125 -7.34375 -0.65625 -15.34375l95.328125 -226.98438q4.328125 -10.671875 14.671875 -10.671875q11.0 0 15.0 10.671875l95.65622 227.65625q3.328125 8.0 -1.171875 15.0q-4.5 7.0 -13.15625 7.0q-4.3437195 0 -8.3437195 -2.5q-4.0 -2.5 -6.0 -7.171875l-86.328125 -211.98438l9.671875 0l-87.0 211.98438q-2.0 5.0 -6.0 7.34375q-4.0 2.328125 -8.671875 2.328125zm19.34375 -59.0l12.328125 -26.328125l132.32812 0l12.0 26.328125l-156.65625 0z" fill-rule="nonzero"/></g></svg>