<svg version="1.1" viewBox="0.0 0.0 384.0 504.0" fill="none" stroke="none" stroke-linecap="square" stroke-miterlimit="10" xmlns:xlink="http://www.w3.org/1999/xlink" xmlns="http://www.w3.org/2000/svg"><clipPath id="g2c15ec35c90_0_5.0"><path d="m0 0l384.0 0l0 504.0l-384.0 0l0 -504.0z" clip-rule="nonzero"/></clipPath><g clip-path="url(#g2c15ec35c90_0_5.0)"><path fill="#000000" fill-opacity="0.0" d="m0 0l384.0 0l0 504.0l-384.0 0z" fill-rule="evenodd"/><path fill="#b6d7a8" d="m11.086615 72.30919l0 0c0 -33.305237 26.999228 -60.304466 60.30446 -60.304466l241.21783 0l0 0c15.993744 0 31.332428 6.353487 42.641693 17.662767c11.309296 11.30928 17.66278 26.647957 17.66278 42.641697l0 359.35956c0 33.305237 -26.999237 60.304474 -60.304474 60.304474l-241.21783 0c-33.305233 0 -60.30446 -26.999237 -60.30446 -60.304474z" fill-rule="evenodd"/><path stroke="#38761d" stroke-width="1.0" stroke-linejoin="round" stroke-linecap="butt" d="m11.086615 72.30919l0 0c0 -33.305237 26.999228 -60.304466 60.30446 -60.304466l241.21783 0l0 0c15.993744 0 31.332428 6.353487 42.641693 17.662767c11.309296 11.30928 17.66278 26.647957 17.66278 42.641697l0 359.35956c0 33.305237 -26.999237 60.304474 -60.304474 60.304474l-241.21783 0c-33.305233 0 -60.30446 -26.999237 -60.30446 -60.304474z" fill-rule="evenodd"/><path fill="#000000" d="m213.00206 375.3171q-27.0 0 -50.5 -10.15625q-23.5 -10.171875 -41.0 -28.5q-17.5 -18.34375 -27.5 -42.671875q-10.0 -24.328125 -10.0 -52.328125q0 -27.671875 9.828125 -51.828125q9.84375 -24.171875 27.5 -42.5q17.671875 -18.34375 41.0 -28.671875q23.34375 -10.328125 50.671875 -10.328125q25.0 0 43.999985 6.828125q19.0 6.828125 37.65625 22.171875q2.671875 2.0 3.828125 4.5q1.171875 2.5 1.0 5.0q-0.15625 2.5 -1.15625 4.828125q-0.328125 5.0 -4.171875 8.0q-3.828125 3.0 -9.0 3.171875q-5.15625 0.15625 -10.15625 -3.5q-12.671875 -11.0 -26.67186 -16.671875q-14.0 -5.671875 -35.328125 -5.671875q-20.328125 0 -38.171875 8.34375q-17.828125 8.328125 -31.5 22.671875q-13.65625 14.328125 -21.328125 33.328125q-7.671875 18.984375 -7.671875 40.328125q0 22.0 7.671875 40.828125q7.671875 18.828125 21.328125 33.328125q13.671875 14.5 31.5 22.5q17.84375 8.0 38.171875 8.0q17.65625 0 33.328125 -5.828125q15.67186 -5.828125 29.67186 -16.5q5.328125 -4.0 10.65625 -3.5q5.34375 0.5 9.0 4.34375q3.671875 3.828125 3.671875 10.484375q0 3.0 -1.0 5.84375q-1.0 2.828125 -3.671875 5.15625q-17.328125 15.0 -38.171875 22.0q-20.82811 7.0 -43.48436 7.0z" fill-rule="nonzero"/></g></svg>