<svg version="1.1" viewBox="0.0 0.0 384.0 504.0" fill="none" stroke="none" stroke-linecap="square" stroke-miterlimit="10" xmlns:xlink="http://www.w3.org/1999/xlink" xmlns="http://www.w3.org/2000/svg"><clipPath id="g2c15ec35c90_0_49.0"><path d="m0 0l384.0 0l0 504.0l-384.0 0l0 -504.0z" clip-rule="nonzero"/></clipPath><g clip-path="url(#g2c15ec35c90_0_49.0)"><path fill="#000000" fill-opacity="0.0" d="m0 0l384.0 0l0 504.0l-384.0 0z" fill-rule="evenodd"/><path fill="#b6d7a8" d="m11.086615 72.30919l0 0c0 -33.305237 26.999228 -60.304466 60.30446 -60.304466l241.21783 0l0 0c15.993744 0 31.332428 6.353487 42.641693 17.662767c11.309296 11.30928 17.66278 26.647957 17.66278 42.641697l0 359.35956c0 33.305237 -26.999237 60.304474 -60.304474 60.304474l-241.21783 0c-33.305233 0 -60.30446 -26.999237 -60.30446 -60.304474z" fill-rule="evenodd"/><path stroke="#38761d" stroke-width="1.0" stroke-linejoin="round" stroke-linecap="butt" d="m11.086615 72.30919l0 0c0 -33.305237 26.999228 -60.304466 60.30446 -60.304466l241.21783 0l0 0c15.993744 0 31.332428 6.353487 42.641693 17.662767c11.309296 11.30928 17.66278 26.647957 17.66278 42.641697l0 359.35956c0 33.305237 -26.999237 60.304474 -60.304474 60.304474l-241.21783 0c-33.305233 0 -60.30446 -26.999237 -60.30446 -60.304474z" fill-rule="evenodd"/><path fill="#000000" d="m102.67407 371.98898q-6.671875 0 -11.015625 -4.5q-4.328125 -4.5 -4.328125 -11.171875l0 -228.98438q0 -7.0 4.328125 -11.328125q4.34375 -4.34375 11.015625 -4.34375q7.328125 0 12.328125 5.671875l150.65625 199.65625l0 -189.65625q0 -7.0 4.5 -11.328125q4.5 -4.34375 11.171875 -4.34375q6.6718445 0 10.9999695 4.34375q4.328125 4.328125 4.328125 11.328125l0 228.98438q0 6.671875 -4.328125 11.171875q-4.328125 4.5 -10.9999695 4.5q-3.328125 0 -6.671875 -1.328125q-3.328125 -1.34375 -5.328125 -4.0l-151.0 -199.67188l0 189.32812q0 6.671875 -4.328125 11.171875q-4.328125 4.5 -11.328125 4.5z" fill-rule="nonzero"/></g></svg>