<svg version="1.1" viewBox="0.0 0.0 384.0 504.0" fill="none" stroke="none" stroke-linecap="square" stroke-miterlimit="10" xmlns:xlink="http://www.w3.org/1999/xlink" xmlns="http://www.w3.org/2000/svg"><clipPath id="g2c15ec35c90_0_69.0"><path d="m0 0l384.0 0l0 504.0l-384.0 0l0 -504.0z" clip-rule="nonzero"/></clipPath><g clip-path="url(#g2c15ec35c90_0_69.0)"><path fill="#000000" fill-opacity="0.0" d="m0 0l384.0 0l0 504.0l-384.0 0z" fill-rule="evenodd"/><path fill="#b6d7a8" d="m11.086615 72.30919l0 0c0 -33.305237 26.999228 -60.304466 60.30446 -60.304466l241.21783 0l0 0c15.993744 0 31.332428 6.353487 42.641693 17.662767c11.309296 11.30928 17.66278 26.647957 17.66278 42.641697l0 359.35956c0 33.305237 -26.999237 60.304474 -60.304474 60.304474l-241.21783 0c-33.305233 0 -60.30446 -26.999237 -60.30446 -60.304474z" fill-rule="evenodd"/><path stroke="#38761d" stroke-width="1.0" stroke-linejoin="round" stroke-linecap="butt" d="m11.086615 72.30919l0 0c0 -33.305237 26.999228 -60.304466 60.30446 -60.304466l241.21783 0l0 0c15.993744 0 31.332428 6.353487 42.641693 17.662767c11.309296 11.30928 17.66278 26.647957 17.66278 42.641697l0 359.35956c0 33.305237 -26.999237 60.304474 -60.304474 60.304474l-241.21783 0c-33.305233 0 -60.30446 -26.999237 -60.30446 -60.304474z" fill-rule="evenodd"/><path fill="#000000" d="m194.00182 375.3171q-21.328125 0 -40.17189 -6.5q-18.828125 -6.5 -32.828117 -18.15625q-14.0 -11.671875 -20.671875 -27.34375q-3.328125 -6.328125 -0.171875 -11.65625q3.171875 -5.34375 10.515625 -7.0q5.65625 -1.34375 10.984375 1.5q5.34375 2.828125 8.015617 8.5q4.328125 9.0 13.65625 16.171875q9.34375 7.15625 22.500015 11.5q13.171875 4.328125 28.171875 4.328125q16.671875 0 30.171875 -5.328125q13.5 -5.34375 21.65625 -15.5q8.171875 -10.171875 8.171875 -24.84375q0 -18.671875 -14.34375 -33.0q-14.328125 -14.328125 -45.984375 -18.0q-40.343765 -4.328125 -63.343765 -24.328125q-22.999992 -20.0 -22.999992 -49.328125q0 -21.34375 11.671875 -36.5q11.671867 -15.171875 31.999992 -23.171875q20.32814 -8.0 46.000015 -8.0q19.328125 0 34.484375 5.671875q15.171875 5.65625 26.343735 15.5q11.171875 9.828125 19.171875 22.5q4.0 6.65625 3.15625 12.5q-0.828125 5.828125 -6.15625 9.15625q-6.0 3.34375 -12.5 1.34375q-6.4999847 -2.0 -9.843735 -7.671875q-5.0 -9.0 -12.671875 -15.65625q-7.65625 -6.671875 -18.15625 -10.671875q-10.5 -4.0 -24.828125 -4.0q-25.328125 -0.34375 -41.67189 9.828125q-16.328125 10.171875 -16.328125 30.5q0 10.671875 5.5 19.84375q5.5 9.15625 19.32814 15.984375q13.84375 6.828125 38.84375 9.828125q40.328125 4.671875 61.656235 24.515625q21.328125 19.828125 21.328125 52.15625q0 18.671875 -7.171875 32.671875q-7.15625 14.0 -19.828125 23.5q-12.656235 9.5 -29.156235 14.328125q-16.5 4.828125 -34.5 4.828125z" fill-rule="nonzero"/></g></svg>