<svg version="1.1" viewBox="0.0 0.0 384.0 504.0" fill="none" stroke="none" stroke-linecap="square" stroke-miterlimit="10" xmlns:xlink="http://www.w3.org/1999/xlink" xmlns="http://www.w3.org/2000/svg"><clipPath id="g2c15ec35c90_0_109.0"><path d="m0 0l384.0 0l0 504.0l-384.0 0l0 -504.0z" clip-rule="nonzero"/></clipPath><g clip-path="url(#g2c15ec35c90_0_109.0)"><path fill="#000000" fill-opacity="0.0" d="m0 0l384.0 0l0 504.0l-384.0 0z" fill-rule="evenodd"/><path fill="#ffe599" d="m11.086615 72.30919l0 0c0 -33.305237 26.999228 -60.304466 60.30446 -60.304466l241.21783 0l0 0c15.993744 0 31.332428 6.353487 42.641693 17.662767c11.309296 11.30928 17.66278 26.647957 17.66278 42.641697l0 359.35956c0 33.305237 -26.999237 60.304474 -60.304474 60.304474l-241.21783 0c-33.305233 0 -60.30446 -26.999237 -60.30446 -60.304474z" fill-rule="evenodd"/><path stroke="#f1c232" stroke-width="1.0" stroke-linejoin="round" stroke-linecap="butt" d="m11.086615 72.30919l0 0c0 -33.305237 26.999228 -60.304466 60.30446 -60.304466l241.21783 0l0 0c15.993744 0 31.332428 6.353487 42.641693 17.662767c11.309296 11.30928 17.66278 26.647957 17.66278 42.641697l0 359.35956c0 33.305237 -26.999237 60.304474 -60.304474 60.304474l-241.21783 0c-33.305233 0 -60.30446 -26.999237 -60.30446 -60.304474z" fill-rule="evenodd"/><path fill="#000000" d="m123.0071 371.98898q-7.0 0 -11.671875 -4.5q-4.671875 -4.5 -4.671875 -11.171875l0 -228.98438q0 -7.0 4.5 -11.328125q4.5 -4.34375 11.171875 -4.34375l80.32812 0q21.34375 0 38.171875 8.671875q16.82811 8.65625 26.48436 24.0q9.671875 15.328125 9.671875 35.328125q0 17.0 -9.171875 30.5q-9.15625 13.5 -24.48436 20.828125q21.999985 5.671875 35.499985 21.671875q13.5 16.0 13.5 41.328125q0 23.0 -10.671875 40.5q-10.671875 17.5 -29.499985 27.5q-18.828125 10.0 -43.15625 10.0l-85.99999 0zm14.999992 -29.328125l71.0 0q15.65625 0 27.484375 -5.671875q11.84375 -5.671875 18.671875 -16.5q6.8281097 -10.828125 6.8281097 -26.5q0 -14.671875 -6.8281097 -24.671875q-6.828125 -10.0 -18.671875 -15.328125q-11.828125 -5.328125 -27.484375 -5.328125l-71.0 0l0 94.0zm0 -123.34375l64.65625 0q19.34375 0 31.828125 -10.15625q12.5 -10.171875 12.5 -29.5q0 -19.328125 -12.5 -29.0q-12.484375 -9.671875 -31.828125 -9.671875l-64.65625 0l0 78.328125z" fill-rule="nonzero"/></g></svg>