<svg version="1.1" viewBox="0.0 0.0 384.0 504.0" fill="none" stroke="none" stroke-linecap="square" stroke-miterlimit="10" xmlns:xlink="http://www.w3.org/1999/xlink" xmlns="http://www.w3.org/2000/svg"><clipPath id="g2c15ec35c90_0_117.0"><path d="m0 0l384.0 0l0 504.0l-384.0 0l0 -504.0z" clip-rule="nonzero"/></clipPath><g clip-path="url(#g2c15ec35c90_0_117.0)"><path fill="#000000" fill-opacity="0.0" d="m0 0l384.0 0l0 504.0l-384.0 0z" fill-rule="evenodd"/><path fill="#ffe599" d="m11.086615 72.30919l0 0c0 -33.305237 26.999228 -60.304466 60.30446 -60.304466l241.21783 0l0 0c15.993744 0 31.332428 6.353487 42.641693 17.662767c11.309296 11.30928 17.66278 26.647957 17.66278 42.641697l0 359.35956c0 33.305237 -26.999237 60.304474 -60.304474 60.304474l-241.21783 0c-33.305233 0 -60.30446 -26.999237 -60.30446 -60.304474z" fill-rule="evenodd"/><path stroke="#f1c232" stroke-width="1.0" stroke-linejoin="round" stroke-linecap="butt" d="m11.086615 72.30919l0 0c0 -33.305237 26.999228 -60.304466 60.30446 -60.304466l241.21783 0l0 0c15.993744 0 31.332428 6.353487 42.641693 17.662767c11.309296 11.30928 17.66278 26.647957 17.66278 42.641697l0 359.35956c0 33.305237 -26.999237 60.304474 -60.304474 60.304474l-241.21783 0c-33.305233 0 -60.30446 -26.999237 -60.30446 -60.304474z" fill-rule="evenodd"/><path fill="#000000" d="m111.3354 371.98898q-6.671875 0 -11.171875 -4.5q-4.5 -4.5 -4.5 -11.171875l0 -228.98438q0 -7.0 4.5 -11.328125q4.5 -4.34375 11.171875 -4.34375l60.328125 0q28.671875 0 52.171875 9.5q23.5 9.5 40.82811 27.0q17.328125 17.5 26.828125 41.171875q9.5 23.65625 9.5 52.328125q0 28.65625 -9.5 52.5q-9.5 23.828125 -26.828125 41.328125q-17.32811 17.5 -40.82811 27.0q-23.5 9.5 -52.171875 9.5l-60.328125 0zm15.671875 -28.0l44.65625 0q29.0 0 51.15625 -13.15625q22.171875 -13.171875 34.999985 -36.34375q12.84375 -23.171875 12.84375 -52.828125q0 -30.0 -12.84375 -53.0q-12.82811 -23.0 -34.999985 -36.0q-22.15625 -13.0 -51.15625 -13.0l-44.65625 0l0 204.32812z" fill-rule="nonzero"/></g></svg>