<svg version="1.1" viewBox="0.0 0.0 384.0 504.0" fill="none" stroke="none" stroke-linecap="square" stroke-miterlimit="10" xmlns:xlink="http://www.w3.org/1999/xlink" xmlns="http://www.w3.org/2000/svg"><clipPath id="g2c15ec35c90_0_145.0"><path d="m0 0l384.0 0l0 504.0l-384.0 0l0 -504.0z" clip-rule="nonzero"/></clipPath><g clip-path="url(#g2c15ec35c90_0_145.0)"><path fill="#000000" fill-opacity="0.0" d="m0 0l384.0 0l0 504.0l-384.0 0z" fill-rule="evenodd"/><path fill="#ffe599" d="m11.086615 72.30919l0 0c0 -33.305237 26.999228 -60.304466 60.30446 -60.304466l241.21783 0l0 0c15.993744 0 31.332428 6.353487 42.641693 17.662767c11.309296 11.30928 17.66278 26.647957 17.66278 42.641697l0 359.35956c0 33.305237 -26.999237 60.304474 -60.304474 60.304474l-241.21783 0c-33.305233 0 -60.30446 -26.999237 -60.30446 -60.304474z" fill-rule="evenodd"/><path stroke="#f1c232" stroke-width="1.0" stroke-linejoin="round" stroke-linecap="butt" d="m11.086615 72.30919l0 0c0 -33.305237 26.999228 -60.304466 60.30446 -60.304466l241.21783 0l0 0c15.993744 0 31.332428 6.353487 42.641693 17.662767c11.309296 11.30928 17.66278 26.647957 17.66278 42.641697l0 359.35956c0 33.305237 -26.999237 60.304474 -60.304474 60.304474l-241.21783 0c-33.305233 0 -60.30446 -26.999237 -60.30446 -60.304474z" fill-rule="evenodd"/><path fill="#000000" d="m182.82979 375.3171q-23.0 0 -41.000015 -10.15625q-17.999992 -10.171875 -28.171867 -28.171875q-10.15625 -18.0 -10.15625 -41.0q0 -6.671875 4.5 -11.171875q4.5 -4.5 11.171875 -4.5q7.0 0 11.328117 4.5q4.328125 4.5 4.328125 11.171875q0 14.671875 6.328125 26.171875q6.34375 11.5 17.17189 18.0q10.84375 6.5 24.5 6.5q14.0 0 24.828125 -6.671875q10.84375 -6.671875 17.0 -18.0q6.171875 -11.328125 6.171875 -26.0l0 -168.65625q0 -7.0 4.5 -11.328125q4.5 -4.34375 11.171875 -4.34375q6.65625 0 11.156235 4.34375q4.5 4.328125 4.5 11.328125l0 168.65625q0 23.0 -10.32811 41.0q-10.328125 18.0 -28.171875 28.171875q-17.828125 10.15625 -40.828125 10.15625z" fill-rule="nonzero"/></g></svg>