<svg version="1.1" viewBox="0.0 0.0 384.0 504.0" fill="none" stroke="none" stroke-linecap="square" stroke-miterlimit="10" xmlns:xlink="http://www.w3.org/1999/xlink" xmlns="http://www.w3.org/2000/svg"><clipPath id="g2c15ec35c90_0_189.0"><path d="m0 0l384.0 0l0 504.0l-384.0 0l0 -504.0z" clip-rule="nonzero"/></clipPath><g clip-path="url(#g2c15ec35c90_0_189.0)"><path fill="#000000" fill-opacity="0.0" d="m0 0l384.0 0l0 504.0l-384.0 0z" fill-rule="evenodd"/><path fill="#ffe599" d="m11.086615 72.30919l0 0c0 -33.305237 26.999228 -60.304466 60.30446 -60.304466l241.21783 0l0 0c15.993744 0 31.332428 6.353487 42.641693 17.662767c11.309296 11.30928 17.66278 26.647957 17.66278 42.641697l0 359.35956c0 33.305237 -26.999237 60.304474 -60.304474 60.304474l-241.21783 0c-33.305233 0 -60.30446 -26.999237 -60.30446 -60.304474z" fill-rule="evenodd"/><path stroke="#f1c232" stroke-width="1.0" stroke-linejoin="round" stroke-linecap="butt" d="m11.086615 72.30919l0 0c0 -33.305237 26.999228 -60.304466 60.30446 -60.304466l241.21783 0l0 0c15.993744 0 31.332428 6.353487 42.641693 17.662767c11.309296 11.30928 17.66278 26.647957 17.66278 42.641697l0 359.35956c0 33.305237 -26.999237 60.304474 -60.304474 60.304474l-241.21783 0c-33.305233 0 -60.30446 -26.999237 -60.30446 -60.304474z" fill-rule="evenodd"/><path fill="#000000" d="m193.16368 377.3171q-31.328125 0 -55.5 -11.828125q-24.15625 -11.828125 -37.828125 -32.65625q-13.671875 -20.84375 -13.671875 -47.515625l0 -157.98438q0 -6.671875 4.5 -11.171875q4.5 -4.5 11.171875 -4.5q7.0 0 11.328125 4.5q4.34375 4.5 4.34375 11.171875l0 157.98438q0 18.671875 9.65625 32.84375q9.671875 14.15625 26.828125 22.328125q17.171875 8.171875 39.171875 8.171875q21.34375 0 38.0 -8.171875q16.671875 -8.171875 26.17186 -22.328125q9.5 -14.171875 9.5 -32.84375l0 -157.98438q0 -6.671875 4.5 -11.171875q4.5 -4.5 11.15625 -4.5q7.0 0 11.171875 4.5q4.171875 4.5 4.171875 11.171875l0 157.98438q0 26.671875 -13.34375 47.515625q-13.328125 20.828125 -36.999985 32.65625q-23.65625 11.828125 -54.328125 11.828125z" fill-rule="nonzero"/></g></svg>