<svg version="1.1" viewBox="0.0 0.0 384.0 504.0" fill="none" stroke="none" stroke-linecap="square" stroke-miterlimit="10" xmlns:xlink="http://www.w3.org/1999/xlink" xmlns="http://www.w3.org/2000/svg"><clipPath id="g2c15ec35c90_0_201.0"><path d="m0 0l384.0 0l0 504.0l-384.0 0l0 -504.0z" clip-rule="nonzero"/></clipPath><g clip-path="url(#g2c15ec35c90_0_201.0)"><path fill="#000000" fill-opacity="0.0" d="m0 0l384.0 0l0 504.0l-384.0 0z" fill-rule="evenodd"/><path fill="#ffe599" d="m11.086615 72.30919l0 0c0 -33.305237 26.999228 -60.304466 60.30446 -60.304466l241.21783 0l0 0c15.993744 0 31.332428 6.353487 42.641693 17.662767c11.309296 11.30928 17.66278 26.647957 17.66278 42.641697l0 359.35956c0 33.305237 -26.999237 60.304474 -60.304474 60.304474l-241.21783 0c-33.305233 0 -60.30446 -26.999237 -60.30446 -60.304474z" fill-rule="evenodd"/><path stroke="#f1c232" stroke-width="1.0" stroke-linejoin="round" stroke-linecap="butt" d="m11.086615 72.30919l0 0c0 -33.305237 26.999228 -60.304466 60.30446 -60.304466l241.21783 0l0 0c15.993744 0 31.332428 6.353487 42.641693 17.662767c11.309296 11.30928 17.66278 26.647957 17.66278 42.641697l0 359.35956c0 33.305237 -26.999237 60.304474 -60.304474 60.304474l-241.21783 0c-33.305233 0 -60.30446 -26.999237 -60.30446 -60.304474z" fill-rule="evenodd"/><path fill="#000000" d="m103.84044 371.98898q-7.0 0 -10.671875 -4.328125q-3.671875 -4.34375 -3.84375 -10.171875q-0.15625 -5.828125 3.84375 -10.828125l85.0 -114.671875l14.0 -11.671875l76.999985 -103.65625q4.328125 -5.0 11.65625 -5.0q6.34375 0 10.0 4.0q3.671875 4.0 4.0 9.84375q0.34375 5.828125 -3.328125 10.828125l-81.32811 109.328125l-13.0 11.328125l-82.328125 110.328125q-4.671875 4.671875 -11.0 4.671875zm176.65623 0q-3.671875 0 -6.671875 -1.328125q-3.0 -1.34375 -5.328125 -4.34375l-79.656235 -110.65625l-11.671875 -9.0l-79.328125 -110.328125q-3.671875 -5.0 -3.171875 -10.671875q0.5 -5.671875 4.328125 -9.828125q3.84375 -4.171875 10.171875 -4.171875q7.671875 0 11.328125 5.0l75.671875 104.65625l11.328125 9.0l83.999985 116.34375q3.671875 5.0 3.5 11.0q-0.171875 6.0 -4.0 10.171875q-3.828125 4.15625 -10.5 4.15625z" fill-rule="nonzero"/></g></svg>