<svg version="1.1" viewBox="0.0 0.0 384.0 504.0" fill="none" stroke="none" stroke-linecap="square" stroke-miterlimit="10" xmlns:xlink="http://www.w3.org/1999/xlink" xmlns="http://www.w3.org/2000/svg"><clipPath id="g2c15ec35c90_0_209.0"><path d="m0 0l384.0 0l0 504.0l-384.0 0l0 -504.0z" clip-rule="nonzero"/></clipPath><g clip-path="url(#g2c15ec35c90_0_209.0)"><path fill="#000000" fill-opacity="0.0" d="m0 0l384.0 0l0 504.0l-384.0 0z" fill-rule="evenodd"/><path fill="#ffe599" d="m11.086615 72.30919l0 0c0 -33.305237 26.999228 -60.304466 60.30446 -60.304466l241.21783 0l0 0c15.993744 0 31.332428 6.353487 42.641693 17.662767c11.309296 11.30928 17.66278 26.647957 17.66278 42.641697l0 359.35956c0 33.305237 -26.999237 60.304474 -60.304474 60.304474l-241.21783 0c-33.305233 0 -60.30446 -26.999237 -60.30446 -60.304474z" fill-rule="evenodd"/><path stroke="#f1c232" stroke-width="1.0" stroke-linejoin="round" stroke-linecap="butt" d="m11.086615 72.30919l0 0c0 -33.305237 26.999228 -60.304466 60.30446 -60.304466l241.21783 0l0 0c15.993744 0 31.332428 6.353487 42.641693 17.662767c11.309296 11.30928 17.66278 26.647957 17.66278 42.641697l0 359.35956c0 33.305237 -26.999237 60.304474 -60.304474 60.304474l-241.21783 0c-33.305233 0 -60.30446 -26.999237 -60.30446 -60.304474z" fill-rule="evenodd"/><path fill="#000000" d="m102.50195 371.98898q-7.0 0 -11.0 -4.5q-4.0 -4.5 -4.5 -10.328125q-0.5 -5.84375 3.171875 -10.5l166.65625 -207.0l-151.65625 0q-7.671875 0 -11.515625 -3.828125q-3.828125 -3.84375 -3.484375 -9.84375q-0.34375 -6.0 4.15625 -10.15625q4.5 -4.171875 11.171875 -4.171875l175.32812 0q6.9999695 0 11.1562195 4.34375q4.171875 4.328125 4.84375 10.15625q0.671875 5.828125 -3.0 10.171875l-167.3281 207.65625l154.32812 0q6.9999695 0 11.3280945 4.0q4.34375 4.0 4.34375 10.0q0 6.328125 -4.34375 10.171875q-4.328125 3.828125 -11.3280945 3.828125l-178.32812 0z" fill-rule="nonzero"/></g></svg>