<svg version="1.1" viewBox="0.0 0.0 480.0 480.0" fill="none" stroke="none" stroke-linecap="square" stroke-miterlimit="10" xmlns:xlink="http://www.w3.org/1999/xlink" xmlns="http://www.w3.org/2000/svg"><clipPath id="g2c15ec35c90_0_101.0"><path d="m0 0l480.0 0l0 480.0l-480.0 0l0 -480.0z" clip-rule="nonzero"/></clipPath><g clip-path="url(#g2c15ec35c90_0_101.0)"><path fill="#000000" fill-opacity="0.0" d="m0 0l480.0 0l0 480.0l-480.0 0z" fill-rule="evenodd"/><path fill="#ffe599" d="m13.858268 86.81365l0 0c0 -41.631546 33.749035 -75.380585 75.38058 -75.380585l301.52234 0l0 0c19.992157 0 39.165497 7.9418583 53.302094 22.07846c14.136597 14.1366005 22.07846 33.309948 22.07846 53.30212l0 306.37268c0 41.63156 -33.749023 75.380585 -75.380554 75.380585l-301.52234 0c-41.631542 0 -75.38058 -33.749023 -75.38058 -75.380585z" fill-rule="evenodd"/><path stroke="#f1c232" stroke-width="1.0" stroke-linejoin="round" stroke-linecap="butt" d="m13.858268 86.81365l0 0c0 -41.631546 33.749035 -75.380585 75.38058 -75.380585l301.52234 0l0 0c19.992157 0 39.165497 7.9418583 53.302094 22.07846c14.136597 14.1366005 22.07846 33.309948 22.07846 53.30212l0 306.37268c0 41.63156 -33.749023 75.380585 -75.380554 75.380585l-301.52234 0c-41.631542 0 -75.38058 -33.749023 -75.38058 -75.380585z" fill-rule="evenodd"/><path fill="#000000" d="m144.16333 360.0q-8.65625 0 -13.0 -7.328125q-4.3281174 -7.34375 -0.65625 -15.34375l95.328125 -226.98438q4.328125 -10.671875 14.671875 -10.671875q11.0 0 15.0 10.671875l95.65628 227.65625q3.328125 8.0 -1.171875 15.0q-4.5 7.0 -13.15625 7.0q-4.34375 0 -8.34375 -2.5q-4.0 -2.5 -6.0 -7.171875l-86.328156 -211.98438l9.671875 0l-87.0 211.98438q-2.0 5.0 -6.0 7.34375q-4.0 2.328125 -8.671875 2.328125zm19.34375 -59.0l12.328125 -26.328125l132.32816 0l12.0 26.328125l-156.65628 0z" fill-rule="nonzero"/></g></svg>