<svg version="1.1" viewBox="0.0 0.0 480.0 480.0" fill="none" stroke="none" stroke-linecap="square" stroke-miterlimit="10" xmlns:xlink="http://www.w3.org/1999/xlink" xmlns="http://www.w3.org/2000/svg"><clipPath id="g2c15ec35c90_0_133.0"><path d="m0 0l480.0 0l0 480.0l-480.0 0l0 -480.0z" clip-rule="nonzero"/></clipPath><g clip-path="url(#g2c15ec35c90_0_133.0)"><path fill="#000000" fill-opacity="0.0" d="m0 0l480.0 0l0 480.0l-480.0 0z" fill-rule="evenodd"/><path fill="#ffe599" d="m13.858268 86.81365l0 0c0 -41.631546 33.749035 -75.380585 75.38058 -75.380585l301.52234 0l0 0c19.992157 0 39.165497 7.9418583 53.302094 22.07846c14.136597 14.1366005 22.07846 33.309948 22.07846 53.30212l0 306.37268c0 41.63156 -33.749023 75.380585 -75.380554 75.380585l-301.52234 0c-41.631542 0 -75.38058 -33.749023 -75.38058 -75.380585z" fill-rule="evenodd"/><path stroke="#f1c232" stroke-width="1.0" stroke-linejoin="round" stroke-linecap="butt" d="m13.858268 86.81365l0 0c0 -41.631546 33.749035 -75.380585 75.38058 -75.380585l301.52234 0l0 0c19.992157 0 39.165497 7.9418583 53.302094 22.07846c14.136597 14.1366005 22.07846 33.309948 22.07846 53.30212l0 306.37268c0 41.63156 -33.749023 75.380585 -75.380554 75.380585l-301.52234 0c-41.631542 0 -75.38058 -33.749023 -75.38058 -75.380585z" fill-rule="evenodd"/><path fill="#000000" d="m261.00208 363.32812q-27.000015 0 -50.500015 -10.15625q-23.5 -10.171875 -41.0 -28.5q-17.5 -18.34375 -27.5 -42.671875q-10.0 -24.328125 -10.0 -52.328125q0 -27.671875 9.828125 -51.828125q9.84375 -24.171875 27.5 -42.5q17.671875 -18.34375 41.0 -28.671875q23.34375 -10.328125 50.67189 -10.328125q25.0 0 44.0 6.828125q19.0 6.828125 37.65625 22.171875q2.671875 2.0 3.828125 4.5q1.171875 2.5 1.0 5.0q-0.15625 2.5 -1.15625 4.828125q-0.328125 5.0 -4.171875 8.171875q-3.828125 3.15625 -9.171875 3.15625q-5.328125 0 -9.984375 -3.65625q-12.671875 -11.0 -26.671875 -16.671875q-14.0 -5.671875 -35.328125 -5.671875q-20.32814 0 -38.17189 8.34375q-17.828125 8.328125 -31.5 22.671875q-13.65625 14.328125 -21.328125 33.328125q-7.671875 18.984375 -7.671875 40.328125q0 22.0 7.671875 40.828125q7.671875 18.828125 21.328125 33.328125q13.671875 14.5 31.5 22.5q17.84375 8.0 38.17189 8.0q17.65625 0 33.328125 -5.828125q15.671875 -5.828125 29.671875 -16.5q5.328125 -4.0 10.65625 -3.5q5.34375 0.5 9.0 4.34375q3.671875 3.828125 3.671875 10.484375q0 3.0 -0.84375 5.84375q-0.828125 2.828125 -3.828125 5.15625q-17.328125 15.34375 -38.171875 22.171875q-20.828125 6.828125 -43.484375 6.828125zm86.328125 -40.0l-30.0 -6.328125l0 -62.328125l-48.328125 0q-6.671875 0 -11.171875 -4.0q-4.5000153 -4.0 -4.5000153 -10.0q0 -6.0 4.5000153 -9.828125q4.5 -3.84375 11.171875 -3.84375l63.0 0q7.0 0 11.15625 4.34375q4.171875 4.328125 4.171875 10.984375l0 81.0z" fill-rule="nonzero"/></g></svg>