<svg version="1.1" viewBox="0.0 0.0 480.0 480.0" fill="none" stroke="none" stroke-linecap="square" stroke-miterlimit="10" xmlns:xlink="http://www.w3.org/1999/xlink" xmlns="http://www.w3.org/2000/svg"><clipPath id="g2c15ec35c90_0_149.0"><path d="m0 0l480.0 0l0 480.0l-480.0 0l0 -480.0z" clip-rule="nonzero"/></clipPath><g clip-path="url(#g2c15ec35c90_0_149.0)"><path fill="#000000" fill-opacity="0.0" d="m0 0l480.0 0l0 480.0l-480.0 0z" fill-rule="evenodd"/><path fill="#ffe599" d="m13.858268 86.81365l0 0c0 -41.631546 33.749035 -75.380585 75.38058 -75.380585l301.52234 0l0 0c19.992157 0 39.165497 7.9418583 53.302094 22.07846c14.136597 14.1366005 22.07846 33.309948 22.07846 53.30212l0 306.37268c0 41.63156 -33.749023 75.380585 -75.380554 75.380585l-301.52234 0c-41.631542 0 -75.38058 -33.749023 -75.38058 -75.380585z" fill-rule="evenodd"/><path stroke="#f1c232" stroke-width="1.0" stroke-linejoin="round" stroke-linecap="butt" d="m13.858268 86.81365l0 0c0 -41.631546 33.749035 -75.380585 75.38058 -75.380585l301.52234 0l0 0c19.992157 0 39.165497 7.9418583 53.302094 22.07846c14.136597 14.1366005 22.07846 33.309948 22.07846 53.30212l0 306.37268c0 41.63156 -33.749023 75.380585 -75.380554 75.380585l-301.52234 0c-41.631542 0 -75.38058 -33.749023 -75.38058 -75.380585z" fill-rule="evenodd"/><path fill="#000000" d="m178.66843 360.0q-6.328125 0 -11.0 -4.5q-4.671875 -4.5 -4.671875 -11.171875l0 -228.98438q0 -6.671875 4.671875 -11.171875q4.671875 -4.5 11.0 -4.5q6.671875 0 11.171875 4.5q4.5 4.5 4.5 11.171875l0 104.984375l114.65625 -114.65625q3.671875 -3.328125 6.5 -4.65625q2.828125 -1.34375 6.171875 -1.34375q7.65625 0 10.984375 4.5q3.34375 4.5 2.671875 10.671875q-0.65625 6.15625 -5.328125 11.5l-87.65625 87.65625l88.984375 121.0q3.671875 5.328125 3.0 11.171875q-0.65625 5.828125 -4.328125 9.828125q-3.671875 4.0 -9.671875 4.0q-8.65625 0 -13.0 -6.671875l-86.65625 -117.65625l-26.328125 26.328125l0 82.328125q0 6.671875 -4.5 11.171875q-4.5 4.5 -11.171875 4.5z" fill-rule="nonzero"/></g></svg>