<svg version="1.1" viewBox="0.0 0.0 480.0 480.0" fill="none" stroke="none" stroke-linecap="square" stroke-miterlimit="10" xmlns:xlink="http://www.w3.org/1999/xlink" xmlns="http://www.w3.org/2000/svg"><clipPath id="g2c15ec35c90_0_165.0"><path d="m0 0l480.0 0l0 480.0l-480.0 0l0 -480.0z" clip-rule="nonzero"/></clipPath><g clip-path="url(#g2c15ec35c90_0_165.0)"><path fill="#000000" fill-opacity="0.0" d="m0 0l480.0 0l0 480.0l-480.0 0z" fill-rule="evenodd"/><path fill="#ffe599" d="m13.858268 86.81365l0 0c0 -41.631546 33.749035 -75.380585 75.38058 -75.380585l301.52234 0l0 0c19.992157 0 39.165497 7.9418583 53.302094 22.07846c14.136597 14.1366005 22.07846 33.309948 22.07846 53.30212l0 306.37268c0 41.63156 -33.749023 75.380585 -75.380554 75.380585l-301.52234 0c-41.631542 0 -75.38058 -33.749023 -75.38058 -75.380585z" fill-rule="evenodd"/><path stroke="#f1c232" stroke-width="1.0" stroke-linejoin="round" stroke-linecap="butt" d="m13.858268 86.81365l0 0c0 -41.631546 33.749035 -75.380585 75.38058 -75.380585l301.52234 0l0 0c19.992157 0 39.165497 7.9418583 53.302094 22.07846c14.136597 14.1366005 22.07846 33.309948 22.07846 53.30212l0 306.37268c0 41.63156 -33.749023 75.380585 -75.380554 75.380585l-301.52234 0c-41.631542 0 -75.38058 -33.749023 -75.38058 -75.380585z" fill-rule="evenodd"/><path fill="#000000" d="m240.17432 363.32812q-29.34375 0 -53.671875 -9.828125q-24.328125 -9.828125 -41.828125 -27.828125q-17.499992 -18.0 -27.343742 -42.328125q-9.828125 -24.34375 -9.828125 -53.671875q0 -29.0 9.828125 -53.328125q9.84375 -24.34375 27.343742 -42.34375q17.5 -18.0 41.828125 -27.828125q24.328125 -9.828125 53.671875 -9.828125q28.984375 0 53.31253 9.828125q24.34375 9.828125 42.0 27.828125q17.671875 18.0 27.5 42.34375q9.84375 24.328125 9.84375 53.328125q0 29.328125 -9.84375 53.671875q-9.828125 24.328125 -27.5 42.328125q-17.65625 18.0 -42.0 27.828125q-24.328156 9.828125 -53.31253 9.828125zm0 -28.65625q22.328125 0 40.984375 -8.0q18.671906 -8.0 32.50003 -22.171875q13.84375 -14.171875 21.34375 -33.328125q7.5 -19.171875 7.5 -41.5q0 -22.34375 -7.5 -41.328125q-7.5 -19.0 -21.34375 -33.328125q-13.828125 -14.34375 -32.50003 -22.171875q-18.65625 -7.84375 -40.984375 -7.84375q-22.34375 0 -41.015625 7.84375q-18.65625 7.828125 -32.328125 22.171875q-13.65625 14.328125 -21.328125 33.328125q-7.671875 18.984375 -7.671875 41.328125q0 22.328125 7.671875 41.5q7.671875 19.15625 21.328125 33.328125q13.671875 14.171875 32.328125 22.171875q18.671875 8.0 41.015625 8.0z" fill-rule="nonzero"/></g></svg>