<svg version="1.1" viewBox="0.0 0.0 480.0 480.0" fill="none" stroke="none" stroke-linecap="square" stroke-miterlimit="10" xmlns:xlink="http://www.w3.org/1999/xlink" xmlns="http://www.w3.org/2000/svg"><clipPath id="g2c15ec35c90_0_181.0"><path d="m0 0l480.0 0l0 480.0l-480.0 0l0 -480.0z" clip-rule="nonzero"/></clipPath><g clip-path="url(#g2c15ec35c90_0_181.0)"><path fill="#000000" fill-opacity="0.0" d="m0 0l480.0 0l0 480.0l-480.0 0z" fill-rule="evenodd"/><path fill="#ffe599" d="m13.858268 86.81365l0 0c0 -41.631546 33.749035 -75.380585 75.38058 -75.380585l301.52234 0l0 0c19.992157 0 39.165497 7.9418583 53.302094 22.07846c14.136597 14.1366005 22.07846 33.309948 22.07846 53.30212l0 306.37268c0 41.63156 -33.749023 75.380585 -75.380554 75.380585l-301.52234 0c-41.631542 0 -75.38058 -33.749023 -75.38058 -75.380585z" fill-rule="evenodd"/><path stroke="#f1c232" stroke-width="1.0" stroke-linejoin="round" stroke-linecap="butt" d="m13.858268 86.81365l0 0c0 -41.631546 33.749035 -75.380585 75.38058 -75.380585l301.52234 0l0 0c19.992157 0 39.165497 7.9418583 53.302094 22.07846c14.136597 14.1366005 22.07846 33.309948 22.07846 53.30212l0 306.37268c0 41.63156 -33.749023 75.380585 -75.380554 75.380585l-301.52234 0c-41.631542 0 -75.38058 -33.749023 -75.38058 -75.380585z" fill-rule="evenodd"/><path fill="#000000" d="m242.00182 363.32812q-21.328125 0 -40.171875 -6.5q-18.828125 -6.5 -32.828125 -18.15625q-14.0 -11.671875 -20.671875 -27.34375q-3.328125 -6.328125 -0.171875 -11.65625q3.171875 -5.34375 10.515625 -7.0q5.65625 -1.34375 10.984375 1.5q5.34375 2.828125 8.015625 8.5q4.328125 9.0 13.65625 16.171875q9.34375 7.15625 22.5 11.5q13.171875 4.328125 28.171875 4.328125q16.67189 0 30.17189 -5.328125q13.5 -5.34375 21.65625 -15.5q8.171875 -10.171875 8.171875 -24.84375q0 -18.671875 -14.34375 -33.0q-14.328125 -14.328125 -45.98439 -18.0q-40.34375 -4.328125 -63.34375 -24.328125q-23.0 -20.0 -23.0 -49.328125q0 -21.34375 11.671875 -36.5q11.671875 -15.171875 32.0 -23.171875q20.328125 -8.0 46.0 -8.0q19.32814 0 34.48439 5.671875q15.171875 5.65625 26.34375 15.5q11.171875 9.828125 19.171875 22.5q4.0 6.65625 3.15625 12.5q-0.828125 5.828125 -6.15625 9.15625q-6.0 3.34375 -12.5 1.34375q-6.5 -2.0 -9.84375 -7.671875q-5.0 -9.0 -12.671875 -15.65625q-7.65625 -6.671875 -18.15625 -10.671875q-10.5 -4.0 -24.82814 -4.0q-25.328125 -0.34375 -41.671875 9.828125q-16.328125 10.171875 -16.328125 30.5q0 10.671875 5.5 19.84375q5.5 9.15625 19.328125 15.984375q13.84375 6.828125 38.84375 9.828125q40.32814 4.671875 61.656265 24.515625q21.328125 19.828125 21.328125 52.15625q0 18.671875 -7.171875 32.671875q-7.15625 14.0 -19.828125 23.5q-12.65625 9.5 -29.15625 14.328125q-16.5 4.828125 -34.500015 4.828125z" fill-rule="nonzero"/></g></svg>