<svg version="1.1" viewBox="0.0 0.0 480.0 480.0" fill="none" stroke="none" stroke-linecap="square" stroke-miterlimit="10" xmlns:xlink="http://www.w3.org/1999/xlink" xmlns="http://www.w3.org/2000/svg"><clipPath id="g2c15ec35c90_0_205.0"><path d="m0 0l480.0 0l0 480.0l-480.0 0l0 -480.0z" clip-rule="nonzero"/></clipPath><g clip-path="url(#g2c15ec35c90_0_205.0)"><path fill="#000000" fill-opacity="0.0" d="m0 0l480.0 0l0 480.0l-480.0 0z" fill-rule="evenodd"/><path fill="#ffe599" d="m13.858268 86.81365l0 0c0 -41.631546 33.749035 -75.380585 75.38058 -75.380585l301.52234 0l0 0c19.992157 0 39.165497 7.9418583 53.302094 22.07846c14.136597 14.1366005 22.07846 33.309948 22.07846 53.30212l0 306.37268c0 41.63156 -33.749023 75.380585 -75.380554 75.380585l-301.52234 0c-41.631542 0 -75.38058 -33.749023 -75.38058 -75.380585z" fill-rule="evenodd"/><path stroke="#f1c232" stroke-width="1.0" stroke-linejoin="round" stroke-linecap="butt" d="m13.858268 86.81365l0 0c0 -41.631546 33.749035 -75.380585 75.38058 -75.380585l301.52234 0l0 0c19.992157 0 39.165497 7.9418583 53.302094 22.07846c14.136597 14.1366005 22.07846 33.309948 22.07846 53.30212l0 306.37268c0 41.63156 -33.749023 75.380585 -75.380554 75.380585l-301.52234 0c-41.631542 0 -75.38058 -33.749023 -75.38058 -75.380585z" fill-rule="evenodd"/><path fill="#000000" d="m239.66843 360.0q-6.328125 0 -10.828125 -4.5q-4.5 -4.5 -4.5 -11.171875l0 -80.0l-89.671875 -140.32812q-4.0 -6.0 -3.0 -11.65625q1.0 -5.671875 5.15625 -9.171875q4.171875 -3.5 10.171875 -3.5q5.0 0 8.0 2.171875q3.0 2.15625 5.671875 6.15625l86.671875 138.32812l-13.671875 0l87.328125 -138.98438q2.671875 -3.671875 6.0 -5.671875q3.328125 -2.0 8.0 -2.0q5.671875 0 9.328125 3.84375q3.671875 3.828125 4.328125 9.328125q0.671875 5.5 -2.984375 11.15625l-90.328125 140.32812l0 80.0q0 6.671875 -4.5 11.171875q-4.5 4.5 -11.171875 4.5z" fill-rule="nonzero"/></g></svg>