<svg version="1.1" viewBox="0.0 0.0 480.0 480.0" fill="none" stroke="none" stroke-linecap="square" stroke-miterlimit="10" xmlns:xlink="http://www.w3.org/1999/xlink" xmlns="http://www.w3.org/2000/svg"><clipPath id="g2c15ec35c90_0_244.0"><path d="m0 0l480.0 0l0 480.0l-480.0 0l0 -480.0z" clip-rule="nonzero"/></clipPath><g clip-path="url(#g2c15ec35c90_0_244.0)"><path fill="#000000" fill-opacity="0.0" d="m0 0l480.0 0l0 480.0l-480.0 0z" fill-rule="evenodd"/><path fill="#cccccc" d="m13.858268 86.81365l0 0c0 -41.631546 33.749035 -75.380585 75.38058 -75.380585l301.52234 0l0 0c19.992157 0 39.165497 7.9418583 53.302094 22.07846c14.136597 14.1366005 22.07846 33.309948 22.07846 53.30212l0 306.37268c0 41.63156 -33.749023 75.380585 -75.380554 75.380585l-301.52234 0c-41.631542 0 -75.38058 -33.749023 -75.38058 -75.380585z" fill-rule="evenodd"/><path stroke="#434343" stroke-width="1.0" stroke-linejoin="round" stroke-linecap="butt" d="m13.858268 86.81365l0 0c0 -41.631546 33.749035 -75.380585 75.38058 -75.380585l301.52234 0l0 0c19.992157 0 39.165497 7.9418583 53.302094 22.07846c14.136597 14.1366005 22.07846 33.309948 22.07846 53.30212l0 306.37268c0 41.63156 -33.749023 75.380585 -75.380554 75.380585l-301.52234 0c-41.631542 0 -75.38058 -33.749023 -75.38058 -75.380585z" fill-rule="evenodd"/><path fill="#000000" d="m145.50229 360.0q-6.671875 0 -11.171875 -4.5q-4.5 -4.5 -4.5 -11.171875l0 -228.98438q0 -7.0 4.5 -11.328125q4.5 -4.34375 11.171875 -4.34375q7.0 0 11.328125 4.34375q4.34375 4.328125 4.34375 11.328125l0 98.984375l157.65625 0l0 -98.984375q0 -7.0 4.5 -11.328125q4.5 -4.34375 11.171875 -4.34375q7.0 0 11.328125 4.34375q4.328125 4.328125 4.328125 11.328125l0 228.98438q0 6.671875 -4.328125 11.171875q-4.328125 4.5 -11.328125 4.5q-6.671875 0 -11.171875 -4.5q-4.5 -4.5 -4.5 -11.171875l0 -102.328125l-157.65625 0l0 102.328125q0 6.671875 -4.34375 11.171875q-4.328125 4.5 -11.328125 4.5z" fill-rule="nonzero"/></g></svg>