<svg version="1.1" viewBox="0.0 0.0 480.0 480.0" fill="none" stroke="none" stroke-linecap="square" stroke-miterlimit="10" xmlns:xlink="http://www.w3.org/1999/xlink" xmlns="http://www.w3.org/2000/svg"><clipPath id="g2c15ec35c90_0_284.0"><path d="m0 0l480.0 0l0 480.0l-480.0 0l0 -480.0z" clip-rule="nonzero"/></clipPath><g clip-path="url(#g2c15ec35c90_0_284.0)"><path fill="#000000" fill-opacity="0.0" d="m0 0l480.0 0l0 480.0l-480.0 0z" fill-rule="evenodd"/><path fill="#cccccc" d="m13.858268 86.81365l0 0c0 -41.631546 33.749035 -75.380585 75.38058 -75.380585l301.52234 0l0 0c19.992157 0 39.165497 7.9418583 53.302094 22.07846c14.136597 14.1366005 22.07846 33.309948 22.07846 53.30212l0 306.37268c0 41.63156 -33.749023 75.380585 -75.380554 75.380585l-301.52234 0c-41.631542 0 -75.38058 -33.749023 -75.38058 -75.380585z" fill-rule="evenodd"/><path stroke="#434343" stroke-width="1.0" stroke-linejoin="round" stroke-linecap="butt" d="m13.858268 86.81365l0 0c0 -41.631546 33.749035 -75.380585 75.38058 -75.380585l301.52234 0l0 0c19.992157 0 39.165497 7.9418583 53.302094 22.07846c14.136597 14.1366005 22.07846 33.309948 22.07846 53.30212l0 306.37268c0 41.63156 -33.749023 75.380585 -75.380554 75.380585l-301.52234 0c-41.631542 0 -75.38058 -33.749023 -75.38058 -75.380585z" fill-rule="evenodd"/><path fill="#000000" d="m184.50166 360.0q-6.671875 0 -11.171875 -4.5q-4.5 -4.5 -4.5 -11.171875l0 -228.98438q0 -7.0 4.5 -11.328125q4.5 -4.34375 11.171875 -4.34375l61.0 0q24.67189 0 43.82814 10.34375q19.171875 10.328125 30.0 28.65625q10.828125 18.328125 10.828125 42.328125q0 22.671875 -10.828125 40.34375q-10.828125 17.65625 -30.0 27.65625q-19.15625 10.0 -43.82814 10.0l-45.328125 0l0 85.328125q0 6.671875 -4.34375 11.171875q-4.328125 4.5 -11.328125 4.5zm138.65627 0q-4.328125 0 -7.671875 -1.828125q-3.328125 -1.84375 -5.984375 -5.84375l-61.32814 -98.65625l30.656265 -8.671875l56.671875 91.0q5.65625 9.0 1.65625 16.5q-4.0 7.5 -14.0 7.5zm-122.98439 -130.32812l45.328125 0q16.000015 0 28.156265 -6.171875q12.171875 -6.171875 19.171875 -17.328125q7.0 -11.171875 7.0 -25.171875q0 -15.328125 -7.0 -27.15625q-7.0 -11.84375 -19.171875 -18.34375q-12.15625 -6.5 -28.156265 -6.5l-45.328125 0l0 100.671875z" fill-rule="nonzero"/></g></svg>